<svg width="16" height="16" viewBox="0 0 16 16" fill="none" xmlns="http://www.w3.org/2000/svg">
<g id="Frame">
<path id="Vector" d="M5.33254 1.6001C3.27441 1.6001 1.60025 3.27581 1.60025 5.33447V10.6678C1.60025 12.7259 3.27596 14.4001 5.33463 14.4001H10.668C12.7261 14.4001 14.4002 12.7244 14.4002 10.6657V5.33239C14.4002 3.27426 12.7245 1.6001 10.6659 1.6001H5.33254ZM11.7336 3.73343C12.028 3.73343 12.2669 3.97236 12.2669 4.26676C12.2669 4.56116 12.028 4.8001 11.7336 4.8001C11.4392 4.8001 11.2002 4.56116 11.2002 4.26676C11.2002 3.97236 11.4392 3.73343 11.7336 3.73343ZM8.00025 4.8001C9.76505 4.8001 11.2002 6.2353 11.2002 8.0001C11.2002 9.7649 9.76505 11.2001 8.00025 11.2001C6.23545 11.2001 4.80025 9.7649 4.80025 8.0001C4.80025 6.2353 6.23545 4.8001 8.00025 4.8001ZM8.00025 5.86676C7.43445 5.86676 6.89183 6.09153 6.49176 6.4916C6.09168 6.89168 5.86692 7.4343 5.86692 8.0001C5.86692 8.56589 6.09168 9.10851 6.49176 9.50859C6.89183 9.90867 7.43445 10.1334 8.00025 10.1334C8.56604 10.1334 9.10867 9.90867 9.50874 9.50859C9.90882 9.10851 10.1336 8.56589 10.1336 8.0001C10.1336 7.4343 9.90882 6.89168 9.50874 6.4916C9.10867 6.09153 8.56604 5.86676 8.00025 5.86676Z" fill="#484848"/>
</g>
</svg>
